<?xml version="1.0" standalone="no"?><!DOCTYPE svg PUBLIC "-//W3C//DTD SVG 1.1//EN" "http://www.w3.org/Graphics/SVG/1.1/DTD/svg11.dtd"><svg t="1690465774526" class="icon" viewBox="0 0 1024 1024" version="1.1" xmlns="http://www.w3.org/2000/svg" p-id="1489" xmlns:xlink="http://www.w3.org/1999/xlink" width="200" height="200"><path d="M160 588.8a19.2 19.2 0 0 1 19.2 19.2v170.672c0 35.968 30.24 66.128 68.8 66.128h528c38.56 0 68.8-30.16 68.8-66.128V608a19.2 19.2 0 1 1 38.4 0v170.672c0 58.272-48.56 104.528-107.2 104.528h-528c-58.64 0-107.2-46.24-107.2-104.528V608a19.2 19.2 0 0 1 19.2-19.2z" fill="#ffffff" p-id="1490"></path><path d="M531.2 176v464a19.2 19.2 0 0 1-38.4 0V176a19.2 19.2 0 0 1 38.4 0z" fill="#ffffff" p-id="1491"></path><path d="M338.416 466.416a19.2 19.2 0 0 1 27.168 0l160 160a19.2 19.2 0 1 1-27.152 27.152l-160-160a19.2 19.2 0 0 1 0-27.152z" fill="#ffffff" p-id="1492"></path><path d="M685.584 466.416a19.2 19.2 0 0 0-27.152 0l-160 160a19.2 19.2 0 1 0 27.152 27.152l160-160a19.2 19.2 0 0 0 0-27.152z" fill="#ffffff" p-id="1493"></path></svg>